<?xml version="1.0" encoding="UTF-8"?>
<svg id="Layer_1" data-name="Layer 1" xmlns="http://www.w3.org/2000/svg" viewBox="0 0 12 12">
  <defs>
    <style>
      .cls-1 {
        fill: #fff;
      }

      .cls-2 {
        fill: #f90;
      }
    </style>
  </defs>
  <path class="cls-1" d="m3.41,5.03c0,.15.02.26.04.35.03.09.07.18.13.28.02.03.03.06.03.09,0,.04-.02.08-.07.12l-.25.17s-.07.04-.1.04c-.04,0-.08-.02-.12-.06-.05-.06-.1-.12-.14-.19-.04-.08-.08-.15-.12-.23-.31.36-.69.54-1.16.54-.33,0-.6-.09-.79-.28-.19-.19-.29-.44-.29-.76,0-.34.12-.61.36-.81.24-.21.56-.31.97-.31.13,0,.27.01.42.03.15.02.3.05.45.09v-.29c0-.3-.06-.51-.19-.63-.13-.12-.34-.18-.64-.18-.14,0-.28.02-.43.05-.15.03-.29.08-.43.13-.06.03-.11.04-.14.05-.03,0-.05.01-.06.01-.06,0-.08-.04-.08-.12v-.19c0-.06,0-.11.03-.14.02-.03.06-.05.11-.08.14-.07.3-.13.5-.18.19-.05.4-.07.62-.07.47,0,.81.11,1.03.32.22.21.33.54.33.97v1.28h0Zm-1.6.6c.13,0,.26-.02.41-.07.14-.05.27-.13.38-.25.06-.07.11-.16.13-.25.02-.09.04-.21.04-.34v-.17c-.12-.03-.24-.05-.36-.07-.12-.02-.25-.02-.37-.02-.26,0-.46.05-.59.16-.13.11-.19.26-.19.45,0,.19.05.32.15.42.09.1.23.15.41.15Zm3.17.43c-.07,0-.12-.01-.15-.04-.03-.02-.06-.08-.08-.15l-.93-3.05c-.02-.08-.04-.13-.04-.16,0-.06.03-.1.09-.1h.39c.07,0,.13.01.15.04.03.02.06.08.08.15l.66,2.61.62-2.61c.02-.08.04-.13.07-.15.03-.02.09-.04.16-.04h.32c.08,0,.13.01.16.04.03.02.06.08.08.15l.62,2.64.68-2.64c.02-.08.05-.13.08-.15.03-.02.08-.04.15-.04h.37c.06,0,.1.03.1.1,0,.02,0,.04,0,.06s-.01.06-.03.1l-.95,3.05c-.02.08-.05.13-.08.15-.03.02-.08.04-.15.04h-.34c-.08,0-.13-.01-.16-.04-.03-.03-.06-.08-.08-.16l-.61-2.55-.61,2.54c-.02.08-.04.13-.07.16-.03.03-.09.04-.16.04h-.34Zm5.07.11c-.21,0-.41-.02-.61-.07-.2-.05-.35-.1-.45-.16-.06-.04-.11-.07-.12-.11-.02-.03-.02-.07-.02-.11v-.2c0-.08.03-.12.09-.12.02,0,.05,0,.07.01.02,0,.06.02.1.04.14.06.29.11.43.14.16.03.31.05.47.05.25,0,.44-.04.58-.13.13-.09.21-.21.21-.38,0-.11-.04-.2-.11-.28-.07-.07-.21-.14-.4-.21l-.57-.18c-.29-.09-.5-.22-.63-.4-.13-.17-.2-.37-.2-.57,0-.17.04-.31.11-.44.07-.13.17-.24.28-.32.12-.09.25-.16.41-.21.16-.05.32-.07.5-.07.09,0,.18,0,.26.02.09.01.17.03.26.04.08.02.15.04.22.06s.13.05.17.07c.06.03.09.06.12.1.02.03.04.08.04.13v.19c0,.08-.03.13-.09.13-.03,0-.08-.02-.15-.05-.23-.1-.48-.15-.76-.15-.22,0-.4.04-.52.11-.12.07-.19.19-.19.35,0,.11.04.21.12.28.08.07.23.15.43.22l.56.18c.28.09.49.22.61.38.12.16.18.35.18.55,0,.17-.04.32-.1.46-.07.13-.17.25-.29.35-.12.1-.27.17-.44.22-.18.05-.36.08-.56.08Z"/>
  <path class="cls-2" d="m11.06,6.88c-.42,0-.91.1-1.28.36-.11.08-.09.19.03.18.42-.05,1.35-.16,1.52.05.17.21-.19,1.09-.34,1.48-.05.12.06.17.16.08.69-.58.88-1.8.73-1.98-.07-.09-.41-.17-.83-.16ZM.15,7.11c-.09.01-.13.12-.03.2,1.55,1.4,3.6,2.24,5.87,2.24,1.62,0,3.51-.51,4.81-1.47.21-.16.03-.4-.19-.3-1.46.62-3.04.92-4.48.92-2.14,0-4.2-.59-5.87-1.56-.04-.02-.07-.03-.1-.02h0Z"/>
</svg>